<?xml version="1.0" encoding="UTF-8" standalone="no"?>
<svg
   width="32"
   height="32"
   viewBox="0 0 24 24"
   version="1.1"
   id="svg4"
   sodipodi:docname="favicon.svg"
   inkscape:version="1.1.2 (0a00cf5339, 2022-02-04)"
   xmlns:inkscape="http://www.inkscape.org/namespaces/inkscape"
   xmlns:sodipodi="http://sodipodi.sourceforge.net/DTD/sodipodi-0.dtd"
   xmlns="http://www.w3.org/2000/svg"
   xmlns:svg="http://www.w3.org/2000/svg">
  <defs
     id="defs8" />
  <sodipodi:namedview
     id="namedview6"
     pagecolor="#505050"
     bordercolor="#eeeeee"
     borderopacity="1"
     inkscape:pageshadow="0"
     inkscape:pageopacity="0"
     inkscape:pagecheckerboard="0"
     showgrid="false"
     inkscape:zoom="25.9375"
     inkscape:cx="16"
     inkscape:cy="16"
     inkscape:window-width="1920"
     inkscape:window-height="1012"
     inkscape:window-x="0"
     inkscape:window-y="0"
     inkscape:window-maximized="1"
     inkscape:current-layer="svg4" />
  <path
     fill="currentColor"
     d="M22 2s-7.64-.37-13.66 7.88C3.72 16.21 2 22 2 22l1.94-1c1.44-2.5 2.19-3.53 3.6-5c2.53.74 5.17.65 7.46-2c-2-.56-3.6-.43-5.96-.19C11.69 12 13.5 11.6 16 12l1-2c-1.8-.34-3-.37-4.78.04C14.19 8.65 15.56 7.87 18 8l1.21-1.93c-1.56-.11-2.5.06-4.29.5c1.61-1.46 3.08-2.12 5.22-2.25c0 0 1.05-1.89 1.86-2.32Z"
     id="path2"
     style="fill:#0369a1;fill-opacity:1"
     inkscape:export-filename="/home/delta/astro-projects/itinerary-planner/public/favicon-16.png"
     inkscape:export-xdpi="57.592781"
     inkscape:export-ydpi="57.592781" />
</svg>
